<?xml version="1.0" standalone="no"?>
<!DOCTYPE svg PUBLIC "-//W3C//DTD SVG 20010904//EN"
 "http://www.w3.org/TR/2001/REC-SVG-20010904/DTD/svg10.dtd">
<svg version="1.0" xmlns="http://www.w3.org/2000/svg"
 width="432.000000pt" height="432.000000pt" viewBox="0 0 432.000000 432.000000"
 preserveAspectRatio="xMidYMid meet">
<metadata>
Created by potrace 1.14, written by Peter Selinger 2001-2017
</metadata>
<g transform="translate(0.000000,432.000000) scale(0.100000,-0.100000)"
fill="#000000" stroke="none">
<path d="M1955 3466 c-364 -60 -675 -259 -875 -557 -137 -205 -206 -416 -217
-664 -29 -633 401 -1184 1029 -1321 116 -25 323 -30 452 -9 278 43 513 162
712 360 510 506 512 1318 5 1826 -181 180 -400 299 -651 354 -102 22 -353 28
-455 11z m375 -11 c286 -43 518 -160 721 -364 157 -157 246 -301 314 -504 123
-369 65 -784 -155 -1113 -29 -43 -101 -127 -159 -185 -154 -154 -306 -249
-506 -314 -371 -122 -767 -68 -1102 151 -109 70 -280 239 -353 348 -254 380
-288 879 -88 1281 127 253 354 475 611 595 218 102 482 141 717 105z"/>
<path d="M2725 2628 c-121 -16 -250 -107 -274 -194 -15 -55 -14 -125 4 -167
27 -65 84 -102 239 -153 154 -52 196 -80 196 -131 0 -29 -23 -72 -47 -86 -7
-5 -12 -11 -9 -15 2 -4 -6 -8 -17 -9 -12 -1 -53 -8 -92 -14 -87 -15 -194 4
-287 50 -34 17 -62 30 -63 29 -1 -2 -16 -29 -33 -60 l-31 -57 32 -19 c111 -68
289 -98 426 -72 68 13 152 50 144 63 -3 6 -1 7 5 3 16 -10 78 49 101 98 26 52
28 153 5 201 -21 46 -103 98 -199 129 -44 14 -84 26 -90 26 -5 0 -35 12 -65
27 -30 14 -58 26 -61 25 -7 -1 -10 19 -12 68 -2 47 27 84 85 110 63 27 200 27
278 0 30 -10 59 -16 64 -13 5 3 6 1 3 -4 -6 -9 12 -23 29 -23 9 0 33 73 27 83
-3 5 -1 7 5 3 11 -7 27 28 18 42 -9 15 -117 50 -191 62 -72 11 -88 11 -190 -2z"/>
<path d="M1420 2627 c0 -4 -169 -851 -175 -874 l-5 -23 318 0 319 0 12 57 c6
31 11 62 11 70 0 10 -45 13 -230 13 -126 0 -230 4 -230 8 0 4 33 173 73 375
41 202 71 369 69 372 -5 5 -162 7 -162 2z"/>
</g>
</svg>
