<svg width="291" height="240" viewBox="0 0 291 240" fill="none" xmlns="http://www.w3.org/2000/svg">
<g clip-path="url(#clip0_1_2225)">
<path d="M255.012 22.0066C249.321 23.8371 243.713 25.6097 238.022 27.4401C236.347 28.0161 236.189 30.2127 237.383 31.2045C239.666 33.3856 241.973 35.4272 244.256 37.6082C231.386 52.9938 213.428 63.2834 194.389 69.8032C174.14 76.6911 149.517 77.2414 133.264 92.6978C129.835 95.9885 126.205 100.894 123.479 106.384C111.78 103.895 98.627 105.748 88.7774 110.53C75.6445 116.905 66.6886 129.513 64.7959 143.608C52.3971 149.463 42.1389 162.137 37.2081 173.851C28.062 195.177 31.7848 220.124 46.5387 237.979C47.5461 239.226 49.585 237.78 48.5776 236.533C37.8798 222.666 33.0542 204.632 36.5729 187.299C39.7495 171.557 49.8895 155.779 64.514 148.223C64.4954 150.443 64.5584 152.605 64.9002 154.815C66.9719 168.795 82.1701 189.523 97.4843 177.063C111.551 165.61 102.719 146.25 87.5172 141.587C81.2458 139.661 75.0953 139.979 69.3234 141.867C71.521 130.621 78.8299 120.531 89.2978 115.065C98.5898 110.189 110.825 108.251 121.711 110.459C117.024 121.999 116.355 135.226 127.098 142.072C133.432 146.161 141.319 144.488 145.292 137.991C149.686 130.705 147.738 121.91 141.908 116.114C137.934 112.068 132.886 109.274 127.427 107.629C132.971 96.9516 143.342 89.1026 155.015 84.9892C164.325 81.6938 174.153 79.9926 183.739 77.6048C193.268 75.1355 202.636 71.9216 211.449 67.7528C225.245 61.2747 237.862 52.4446 247.652 40.839C248.823 41.9702 250.075 43.0437 251.245 44.175C252.055 45.3167 253.005 46.4822 253.734 47.6819C254.37 48.579 255.428 48.6869 256.22 48.2477C257.44 48.2399 258.572 47.0693 258.506 45.7671C258.693 37.9094 258.915 30.2725 259.218 22.5779C259.284 20.0787 255.901 20.1495 255.012 22.0066ZM92.4254 148.159C98.7939 152.469 102.513 160.13 99.537 167.514C96.3269 175.432 87.748 179.067 80.3352 174.149C73.8852 169.897 70.2135 161.958 69.0514 154.444C68.6649 151.653 68.6152 148.991 68.7864 146.295C76.4445 143.436 85.2099 143.347 92.4254 148.159ZM136.466 116.911C142.879 121.802 147.087 132.917 139.071 138.727C135.401 141.331 130.592 140.084 127.485 137.261C123.753 133.901 122.769 128.713 122.935 123.936C123.112 119.519 123.962 115.36 125.486 111.459C129.516 112.646 133.23 114.424 136.466 116.911Z" fill="white"/>
</g>
<defs>
<clipPath id="clip0_1_2225">
<rect width="298.8" height="81.2" fill="white" transform="translate(290.677 66.2234) rotate(144.643)"/>
</clipPath>
</defs>
</svg>
