<svg width="22" height="20" viewBox="0 0 22 20" fill="currentColor" xmlns="http://www.w3.org/2000/svg">
<path d="M2.00006 8.74988C1.30971 8.74988 0.750061 9.30952 0.750061 9.99988C0.750061 10.6902 1.30971 11.2499 2.00006 11.2499V8.74988ZM20.8839 10.8838C21.3721 10.3956 21.3721 9.60415 20.8839 9.11599L12.929 1.16104C12.4408 0.672888 11.6494 0.672888 11.1612 1.16104C10.6731 1.6492 10.6731 2.44065 11.1612 2.92881L18.2323 9.99988L11.1612 17.0709C10.6731 17.5591 10.6731 18.3506 11.1612 18.8387C11.6494 19.3269 12.4408 19.3269 12.929 18.8387L20.8839 10.8838ZM2.00006 11.2499H20.0001V8.74988H2.00006V11.2499Z" fill="white"/>
</svg>
