<svg width="112" height="114" viewBox="0 0 112 114" fill="none" xmlns="http://www.w3.org/2000/svg">
<path d="M83.1112 102.674C84.4112 96.5745 88.0112 93.8745 94.4112 94.1745C95.9112 94.2745 97.1112 94.4745 98.2112 92.9745C101.311 89.0745 104.111 85.0745 105.911 80.3745C105.411 80.0745 105.211 79.8745 104.911 79.8745C97.4112 78.3745 93.8112 73.8745 95.2112 67.6745C96.5112 61.7745 101.711 58.9745 108.711 60.9745C111.811 61.8745 111.011 59.8745 111.211 58.5745C112.511 47.9745 108.111 38.3745 104.211 29.1745C100.611 20.5745 93.6112 14.0745 85.6112 8.87448C82.7112 6.97448 80.5112 6.17448 77.2112 8.77448C72.2112 12.6745 65.3112 10.4745 62.7112 4.87448C60.5112 0.074482 56.3112 -1.22552 50.5112 1.17448C51.5112 1.87448 52.6112 2.57448 53.6112 3.27448C58.7112 6.67448 60.1112 12.5745 56.9112 17.3745C53.9112 21.7745 47.7112 23.0745 43.4112 20.0745C38.5112 16.7745 37.6112 10.3745 41.4112 5.37448C41.8112 4.87448 42.2112 4.37448 42.7112 3.97448C42.7112 3.27448 42.6112 2.57448 42.6112 1.87448C35.0112 3.67448 28.1112 7.07448 22.0112 11.8745C23.0112 13.0745 24.6112 12.0745 25.7112 12.9745C30.7112 13.2745 34.2112 15.5745 35.6112 20.5745C36.6112 24.4745 35.4112 27.8745 32.3112 30.3745C29.0112 33.0745 25.4112 33.4745 21.6112 31.5745C17.8112 29.6745 16.2112 26.3745 16.2112 22.1745C16.2112 20.6745 17.4112 19.1745 16.2112 17.6745C12.9112 19.1745 11.6112 22.4745 10.0112 25.2745C8.9112 27.1745 11.5112 28.5745 12.2112 30.2745C14.2112 36.0745 11.3112 42.0745 5.1112 43.3745C2.0112 44.0745 0.811198 45.3745 0.611198 48.2745C0.511198 50.3745 -0.0888025 52.4745 0.0111975 54.4745C0.811198 65.1745 -0.188803 76.4745 9.3112 84.5745C10.3112 85.4745 11.0112 86.9745 11.3112 88.3745C12.9112 96.3745 19.4112 99.6745 25.4112 104.374C26.4112 98.4745 28.6112 94.2745 34.4112 93.2745C38.4112 92.5745 41.6112 94.0745 43.9112 97.4745C47.2112 102.474 45.5112 106.874 42.2112 111.274C46.9112 112.874 51.5112 113.074 56.2112 113.174C58.6112 113.274 59.9112 112.374 61.2112 110.374C64.7112 104.774 69.3112 103.674 75.2112 106.574C79.9112 108.874 82.0112 107.874 83.1112 102.674ZM5.1112 61.2745C2.8112 56.4745 4.8112 50.5745 9.6112 48.1745C14.6112 45.6745 20.6112 47.8745 22.9112 52.9745C25.2112 57.9745 23.1112 63.5745 18.1112 65.8745C13.1112 68.1745 7.4112 66.1745 5.1112 61.2745ZM28.1112 50.3745C25.7112 45.5745 27.5112 39.6745 32.3112 37.1745C37.0112 34.6745 43.0112 36.5745 45.5112 41.2745C48.2112 46.3745 46.3112 52.1745 41.2112 54.6745C36.2112 57.1745 30.6112 55.2745 28.1112 50.3745ZM55.6112 26.0745C60.5112 23.7745 66.3112 25.7745 68.6112 30.6745C71.0112 35.5745 69.1112 41.2745 64.2112 43.6745C59.3112 46.1745 53.7112 44.3745 51.1112 39.4745C48.6112 34.4745 50.6112 28.4745 55.6112 26.0745ZM74.0112 28.3745C71.5112 23.4745 73.8112 17.2745 78.8112 14.9745C83.8112 12.6745 89.4112 14.7745 91.7112 19.7745C94.1112 24.7745 92.1112 30.2745 87.1112 32.7745C82.2112 35.0745 76.4112 33.1745 74.0112 28.3745ZM16.1112 84.1745C13.8112 79.2745 15.7112 73.5745 20.6112 71.1745C25.5112 68.7745 31.2112 70.5745 33.7112 75.4745C36.3112 80.4745 34.2112 86.4745 29.1112 88.8745C24.2112 91.1745 18.4112 89.0745 16.1112 84.1745ZM39.1112 73.1745C36.7112 68.2745 38.7112 62.5745 43.5112 60.1745C48.5112 57.6745 54.1112 59.5745 56.6112 64.3745C59.2112 69.4745 57.2112 75.3745 52.1112 77.7745C47.2112 80.1745 41.4112 78.0745 39.1112 73.1745ZM66.6112 49.1745C71.6112 46.7745 77.2112 48.6745 79.6112 53.5745C82.1112 58.5745 80.0112 64.5745 74.9112 66.8745C70.0112 69.0745 64.3112 66.9745 62.0112 62.0745C59.7112 57.0745 61.7112 51.4745 66.6112 49.1745ZM84.8112 50.8745C82.7112 45.8745 84.9112 40.2745 89.8112 37.9745C94.8112 35.6745 100.311 37.6745 102.711 42.7745C105.011 47.6745 103.011 53.4745 98.1112 55.7745C93.1112 58.1745 86.9112 55.8745 84.8112 50.8745ZM50.0112 95.9745C47.8112 91.0745 49.9112 85.2745 54.7112 82.9745C59.7112 80.5745 65.6112 82.7745 67.9112 87.9745C70.1112 92.8745 67.8112 98.5745 62.9112 100.774C57.9112 103.074 52.3112 100.874 50.0112 95.9745ZM73.1112 85.2745C70.6112 80.2745 72.7112 74.2745 77.8112 71.9745C82.7112 69.7745 88.4112 71.7745 90.7112 76.6745C93.0112 81.5745 91.1112 87.2745 86.1112 89.6745C81.2112 92.0745 75.6112 90.1745 73.1112 85.2745Z" fill="#60CE70"/>
</svg>
