<svg width="1257" height="816" viewBox="0 0 1257 816" fill="none" xmlns="http://www.w3.org/2000/svg">
<g clip-path="url(#clip0_1_28)">
<g opacity="0.7">
<path d="M442.083 657.61C343.828 538.689 371.438 107.485 628.111 104.107C849.107 101.212 988.811 226.853 1065.35 315.386C1131.16 391.432 1201.84 528.494 1201.84 528.494" stroke="white" stroke-width="1.5" stroke-miterlimit="10" stroke-linecap="round"/>
<path d="M415.661 647.28C327.195 523.902 361.845 111.415 613.12 107.497C829.046 104.115 968.349 225.326 1045.67 313.874C1114.67 392.34 1186.81 530.758 1189.01 542.756" stroke="white" stroke-width="1.4583" stroke-miterlimit="10" stroke-linecap="round"/>
<path d="M389.33 637.077C310.545 509.224 352.344 115.471 598.112 110.996C809.059 107.255 947.708 224.218 1026.1 312.38C1098.05 393.339 1171.87 533.149 1176.19 556.91" stroke="white" stroke-width="1.4167" stroke-miterlimit="10" stroke-linecap="round"/>
<path d="M362.889 626.857C294.022 494.455 342.86 119.419 583.104 114.495C788.963 110.377 927.102 222.891 1006.51 310.994C1081.54 394.356 1156.82 535.522 1163.34 571.281" stroke="white" stroke-width="1.375" stroke-miterlimit="10" stroke-linecap="round"/>
<path d="M336.576 616.545C277.372 479.777 333.359 123.475 568.205 118.012C768.994 113.407 906.714 221.6 986.922 309.608C1065.03 395.373 1141.88 537.913 1150.61 585.561" stroke="white" stroke-width="1.3333" stroke-miterlimit="10" stroke-linecap="round"/>
<path d="M310.136 606.324C260.74 464.99 323.876 127.422 553.197 121.511C749.007 116.547 886.234 220.182 967.333 308.223C1048.63 396.408 1126.94 540.304 1137.76 599.932" stroke="white" stroke-width="1.2917" stroke-miterlimit="10" stroke-linecap="round"/>
<path d="M283.695 596.104C244.089 450.312 314.265 131.461 538.08 124.993C729.037 119.577 865.755 218.764 947.652 306.711C1032.03 397.298 1111.91 542.568 1124.94 614.085" stroke="white" stroke-width="1.25" stroke-miterlimit="10" stroke-linecap="round"/>
<path d="M257.382 585.792C227.566 435.543 304.891 135.426 523.199 128.401C708.959 122.59 845.367 217.473 928.08 305.216C1015.65 398.224 1096.97 544.959 1112.1 628.347" stroke="white" stroke-width="1.2083" stroke-miterlimit="10" stroke-linecap="round"/>
<path d="M230.942 575.571C210.916 420.865 295.298 139.356 508.191 131.9C688.989 125.621 824.887 216.055 908.382 303.813C999.032 399.223 1081.81 547.314 1099.25 642.719" stroke="white" stroke-width="1.1667" stroke-miterlimit="10" stroke-linecap="round"/>
<path d="M204.611 565.368C194.284 406.078 285.906 143.43 493.183 135.399C669.002 128.76 804.517 214.655 888.793 302.427C982.65 400.149 1066.87 549.705 1086.42 656.981" stroke="white" stroke-width="1.125" stroke-miterlimit="10" stroke-linecap="round"/>
<path d="M178.188 555.039C177.743 391.418 276.422 147.377 478.175 138.899C648.923 131.773 784.037 213.237 869.112 300.915C966.177 400.948 1051.84 551.969 1073.58 671.243" stroke="white" stroke-width="1.0833" stroke-miterlimit="10" stroke-linecap="round"/>
<path d="M151.857 544.836C161.11 376.631 266.939 151.325 463.293 142.306C628.954 134.804 763.684 211.728 849.632 299.547C949.887 402 1036.99 554.486 1060.85 685.523" stroke="white" stroke-width="1.0417" stroke-miterlimit="10" stroke-linecap="round"/>
<path d="M125.417 534.615C144.46 361.953 257.328 155.363 448.285 145.806C608.984 137.834 743.314 210.327 829.952 298.035C933.413 402.799 1021.85 556.733 1047.91 699.768" stroke="white" stroke-miterlimit="10" stroke-linecap="round"/>
<path d="M99.103 524.303C127.937 347.184 247.954 159.328 433.295 149.196C589.015 140.865 722.961 208.818 810.38 296.54C917.049 403.616 1006.93 559.014 1035.2 713.938" stroke="white" stroke-width="0.9583" stroke-miterlimit="10" stroke-linecap="round"/>
<path d="M72.6628 514.083C111.304 332.397 238.361 163.258 418.287 152.695C568.919 143.987 702.482 207.4 790.682 295.137C900.558 404.524 991.878 561.388 1022.24 728.292" stroke="white" stroke-width="0.9167" stroke-miterlimit="10" stroke-linecap="round"/>
<path d="M46.2226 503.862C94.6544 317.719 228.86 167.314 403.279 156.194C548.949 147.017 682.112 206 771.093 293.752C884.303 405.358 976.937 563.778 1009.51 742.572" stroke="white" stroke-width="0.875" stroke-miterlimit="10" stroke-linecap="round"/>
<path d="M19.9091 493.55C78.0043 303.041 219.376 171.262 388.271 159.694C528.853 150.139 661.886 204.399 751.395 292.348C867.957 406.066 961.87 566.261 996.55 756.926" stroke="white" stroke-width="0.8333" stroke-miterlimit="10" stroke-linecap="round"/>
<path d="M-6.53117 483.33C61.481 288.272 209.875 175.318 373.263 163.193C508.884 153.17 641.406 202.981 731.823 290.854C851.575 406.991 946.948 568.542 983.824 771.206" stroke="white" stroke-width="0.7917" stroke-miterlimit="10" stroke-linecap="round"/>
<path d="M-32.8623 473.127C109.087 108.6 510.755 95.3749 712.234 289.468C835.193 407.917 931.898 570.915 970.989 785.468" stroke="white" stroke-width="0.75" stroke-miterlimit="10" stroke-linecap="round"/>
</g>
</g>
<defs>
<clipPath id="clip0_1_28">
<rect width="1228.86" height="627.305" fill="white" transform="translate(43.4126) rotate(9.21096)"/>
</clipPath>
</defs>
</svg>
