<svg width="230" height="239" viewBox="0 0 230 239" fill="none" xmlns="http://www.w3.org/2000/svg">
<rect x="62.7894" y="29.3712" width="69.2348" height="69.2348" rx="34.6174" transform="rotate(10.0488 62.7894 29.3712)" fill="#60CE70"/>
<path d="M92.4766 26.3382L91.7972 26.0411L27.9407 175.679L28.62 175.976L92.4766 26.3382Z" fill="#3F3F3F"/>
<path d="M114.268 35.8675L113.588 35.5704L49.7317 185.208L50.411 185.505L114.268 35.8675Z" fill="#3F3F3F"/>
<path d="M136.053 45.3949L135.373 45.0978L71.5168 194.736L72.1962 195.033L136.053 45.3949Z" fill="#3F3F3F"/>
<path d="M157.846 54.9242L157.166 54.6271L93.3098 204.265L93.9891 204.562L157.846 54.9242Z" fill="#3F3F3F"/>
<path d="M179.639 64.4574L178.959 64.1603L115.103 213.798L115.782 214.095L179.639 64.4574Z" fill="#3F3F3F"/>
<path d="M201.434 73.9867L200.754 73.6896L136.898 223.328L137.577 223.625L201.434 73.9867Z" fill="#3F3F3F"/>
<path d="M212.268 101.663L64.4515 37.0197L64.1581 37.7073L211.975 102.351L212.268 101.663Z" fill="#3F3F3F"/>
<path d="M202.854 123.724L55.0375 59.0802L54.744 59.7679L202.561 124.411L202.854 123.724Z" fill="#3F3F3F"/>
<path d="M193.444 145.776L45.6273 81.1329L45.3339 81.8206L193.151 146.464L193.444 145.776Z" fill="#3F3F3F"/>
<path d="M184.03 167.839L36.2133 103.196L35.9198 103.883L183.736 168.527L184.03 167.839Z" fill="#3F3F3F"/>
<path d="M174.614 189.899L26.7973 125.256L26.5038 125.944L174.32 190.587L174.614 189.899Z" fill="#3F3F3F"/>
<path d="M165.2 211.964L17.3832 147.321L17.0897 148.008L164.906 212.652L165.2 211.964Z" fill="#3F3F3F"/>
</svg>
