<svg width="231" height="239" viewBox="0 0 231 239" fill="none" xmlns="http://www.w3.org/2000/svg">
<rect x="63.4336" y="29.3711" width="69.2348" height="69.2348" rx="34.6174" transform="rotate(10.0488 63.4336 29.3711)" fill="#1C9EC1"/>
<path d="M93.1208 26.3379L92.4414 26.0408L28.5849 175.679L29.2642 175.976L93.1208 26.3379Z" fill="#3F3F3F"/>
<path d="M114.912 35.8671L114.232 35.5701L50.3759 185.208L51.0552 185.505L114.912 35.8671Z" fill="#3F3F3F"/>
<path d="M136.697 45.3945L136.018 45.0974L72.161 194.735L72.8404 195.032L136.697 45.3945Z" fill="#3F3F3F"/>
<path d="M158.49 54.9238L157.811 54.6267L93.954 204.265L94.6333 204.562L158.49 54.9238Z" fill="#3F3F3F"/>
<path d="M180.283 64.457L179.604 64.1599L115.747 213.798L116.426 214.095L180.283 64.457Z" fill="#3F3F3F"/>
<path d="M202.078 73.9863L201.398 73.6892L137.542 223.327L138.221 223.624L202.078 73.9863Z" fill="#3F3F3F"/>
<path d="M212.912 101.663L65.0957 37.0193L64.8023 37.707L212.619 102.35L212.912 101.663Z" fill="#3F3F3F"/>
<path d="M203.498 123.723L55.6817 59.0798L55.3882 59.7675L203.205 124.411L203.498 123.723Z" fill="#3F3F3F"/>
<path d="M194.088 145.776L46.2715 81.1326L45.978 81.8203L193.795 146.464L194.088 145.776Z" fill="#3F3F3F"/>
<path d="M184.674 167.838L36.8575 103.195L36.564 103.883L184.381 168.526L184.674 167.838Z" fill="#3F3F3F"/>
<path d="M175.258 189.899L27.4414 125.256L27.148 125.943L174.965 190.587L175.258 189.899Z" fill="#3F3F3F"/>
<path d="M165.844 211.963L18.0274 147.32L17.7339 148.008L165.551 212.651L165.844 211.963Z" fill="#3F3F3F"/>
<rect x="78.5762" y="59.877" width="69.2348" height="69.2348" rx="34.6174" transform="rotate(10.0488 78.5762 59.877)" fill="#26B0D5"/>
</svg>
