<svg width="57" height="57" viewBox="0 0 57 57" fill="none" xmlns="http://www.w3.org/2000/svg">
<g clip-path="url(#clip0_1_2192)">
<path d="M43.6045 34.0893C44.1557 32.0418 45.4236 29.4408 44.707 28.002C43.825 26.3418 40.7931 26.6738 38.6432 26.1204C36.4381 25.5117 33.6267 24.0728 32.0832 24.9029C30.264 25.8437 30.8153 29.2194 29.9333 31.5437C29.7679 33.5913 27.9488 36.1369 29.0513 37.6864C29.9884 39.0146 32.9101 38.9592 34.9497 39.402C37.1548 39.9 39.9111 41.3389 41.5097 40.5641C43.4391 39.6787 42.9981 36.3583 43.6045 34.0893Z" fill="#60CE70"/>
<path d="M12.4584 33.7573C13.3405 35.4728 16.3724 35.1408 18.5223 35.6388C25.4681 37.3544 25.4681 37.299 27.1219 30.2709C27.618 28.2233 28.941 25.6223 28.1693 24.1835C27.2873 22.468 24.2002 23.0214 22.1054 22.4126C19.9004 21.9146 17.089 20.3097 15.6006 21.1398C13.8366 22.0806 14.1673 25.401 13.6161 27.7252C13.0097 29.7175 11.6867 32.3184 12.4584 33.7573Z" fill="#60CE70"/>
<path d="M40.793 44.6029C39.8008 42.9427 36.6586 43.2748 34.4536 42.7214C32.3588 42.168 29.7128 40.8398 28.1692 41.6146C26.5155 42.4447 27.0116 45.599 26.4604 47.702C25.9642 49.9155 24.3656 52.7379 25.1925 54.232C26.1296 56.0029 29.4371 55.5602 31.6973 56.2796C32.5242 56.5563 33.4062 56.7223 34.2882 56.8884C37.0996 57.3864 38.4778 56.4456 39.1393 53.7893C39.3598 52.9039 39.5803 52.0738 39.7457 51.1884C40.0764 48.9194 41.7853 46.2631 40.793 44.6029Z" fill="#60CE70"/>
<path d="M23.208 46.8165C23.7592 44.7689 25.0271 42.168 24.2553 40.7291C23.3733 39.0689 20.2863 39.567 18.5774 38.9583C16.3724 38.4602 14.5532 38.1282 12.7892 37.5748C11.5213 37.1874 11.1354 37.6301 10.8598 38.8476C10.3637 41.4486 9.70216 44.0495 9.09577 46.6505C8.43427 49.4175 9.26115 50.8563 11.9623 51.6864C12.7892 51.9631 13.6712 52.1291 14.5532 52.2952C16.8134 52.7932 19.5697 54.232 21.1132 53.402C22.9875 52.4058 22.6016 49.0854 23.208 46.8165Z" fill="#60CE70"/>
<path d="M16.4275 16.934C17.4749 18.3728 20.5619 18.3175 22.7669 18.8709C29.3269 20.4204 29.382 20.4204 30.8704 13.8903C31.3666 11.6767 33.0203 8.96507 31.9178 7.36022C30.9256 5.97672 27.9488 5.97672 25.7989 5.42332C25.7989 5.47866 25.7989 5.47866 25.7989 5.534C25.6886 5.534 25.6335 5.47866 25.5232 5.47866C23.3733 5.09128 20.8375 3.32041 19.294 4.42721C17.971 5.36798 18.0261 8.30099 17.5851 10.3486C17.089 12.6175 15.3801 15.3845 16.4275 16.934Z" fill="#60CE70"/>
<path d="M33.0203 20.9185C33.9574 22.2466 36.9342 22.0806 38.9739 22.5233V22.5787C40.2418 22.8554 41.6199 23.0767 42.8327 23.5194C45.1479 24.4049 46.471 23.9068 46.6915 21.1952C46.8017 19.9777 47.2427 18.7602 47.5183 17.5427C47.9042 15.3845 49.558 12.8942 48.6209 11.234C47.6286 9.51847 44.6518 9.90585 42.557 9.35245C40.352 8.79905 37.5957 7.41555 35.9971 8.24565C34.3433 9.13109 34.6189 12.3961 34.1228 14.6097C33.5715 16.768 31.9178 19.369 33.0203 20.9185Z" fill="#60CE70"/>
<path d="M0 29.7728C0 30.6583 0.330754 31.3777 1.59865 31.7651C8.76499 33.7573 8.76499 33.8126 10.4188 26.7291C10.4188 26.6185 10.4739 26.5631 10.4739 26.4524C10.5841 26.0097 10.6944 25.567 10.7495 25.1796C11.9623 19.9223 11.9623 19.9223 6.89072 18.7049C1.65377 17.4874 1.54352 17.4321 0.551257 22.8C0.110251 25.0689 0.0551257 27.4486 0 29.7728Z" fill="#60CE70"/>
<path d="M46.7466 34.7534C44.9275 42.4457 44.9275 42.4457 51.4875 43.3864C51.5977 43.3864 51.6528 43.3864 51.7631 43.4418C52.7553 43.6631 53.3617 43.3864 53.8579 42.3903C55.5116 39.2359 56.559 35.9709 56.9449 32.4291C57.1103 30.8796 56.5039 30.1602 54.9052 29.8835C52.7553 29.6068 50.1093 28.002 48.6209 28.8321C46.8569 29.7728 47.4081 32.9825 46.7466 34.7534Z" fill="#60CE70"/>
<path d="M6.94581 15.1078C8.37908 15.4398 9.86747 15.7719 11.3559 16.1039C12.0725 16.2699 12.7891 16.3253 13.0096 15.3845C13.9468 11.4 14.8839 7.36021 15.9313 2.87769C11.3007 4.9806 8.15858 7.91361 5.51254 11.4C3.47289 14.001 3.63827 14.333 6.94581 15.1078Z" fill="#60CE70"/>
<path d="M54.7399 26.3418C55.0155 26.3971 55.236 26.4524 55.5116 26.5078C56.559 26.6185 56.9449 26.6185 56.7795 25.1796C56.1731 20.7524 54.354 16.8787 51.9836 12.5068C51.3221 15.2738 50.8259 17.432 50.3298 19.535C49.0068 25.1796 49.0068 25.1796 54.7399 26.3418Z" fill="#60CE70"/>
<path d="M1.21275 34.9738C1.15763 34.9738 1.1025 35.0291 0.992249 35.0845C1.323 38.6816 3.74853 43.5515 5.95356 45.101C8.70985 36.3019 8.54447 36.0252 1.21275 34.9738Z" fill="#60CE70"/>
<path d="M51.322 46.6505C49.1721 46.1524 47.4632 45.7651 45.7543 45.3223C44.8723 45.101 44.3211 45.0456 44.0454 46.2078C43.4942 48.8641 42.8327 51.4651 42.116 54.5087C45.9197 52.4612 48.676 49.9709 51.322 46.6505Z" fill="#60CE70"/>
<path d="M32.0832 3.26506C33.1857 3.54176 33.4613 3.15438 33.6267 2.15826C33.737 1.38351 34.0677 0.332049 32.9652 0.27671C29.382 0.0553503 25.7437 -0.442708 21.6644 0.774768C25.5232 1.71554 28.8308 2.43496 32.0832 3.26506Z" fill="#60CE70"/>
<path d="M37.706 4.5932C40.4072 5.1466 43.0532 5.81068 46.3608 6.58544C43.5493 4.31651 41.1789 2.82233 38.4227 1.99223C37.6509 1.77087 36.9343 1.49418 36.7138 2.71165C36.5484 3.76311 36.4381 4.37185 37.706 4.5932Z" fill="#60CE70"/>
</g>
<defs>
<clipPath id="clip0_1_2192">
<rect width="57" height="57" fill="white"/>
</clipPath>
</defs>
</svg>
