<svg width="1376" height="738" viewBox="0 0 1376 738" fill="none" xmlns="http://www.w3.org/2000/svg">
<g opacity="0.7">
<path d="M361.39 736.985C332.409 563.049 445.868 376.502 704.811 344.179C913.472 318.088 1396 423.9 1455.41 -13.8403" stroke="white" stroke-width="1.5" stroke-miterlimit="10" stroke-linecap="round"/>
<path d="M340.089 728.434C320.961 549.569 444.709 360.993 713.94 338.091C927.528 319.973 1397.16 433.176 1467.87 7.61182" stroke="white" stroke-width="1.4559" stroke-miterlimit="10" stroke-linecap="round"/>
<path d="M318.933 720.027C309.514 536.234 443.695 345.338 723.359 332.148C941.874 321.857 1398.61 442.453 1480.48 29.064" stroke="white" stroke-width="1.4118" stroke-miterlimit="10" stroke-linecap="round"/>
<path d="M297.632 711.62C298.067 522.899 442.391 329.684 732.488 326.205C955.784 323.451 1399.77 451.73 1492.94 50.5161" stroke="white" stroke-width="1.3676" stroke-miterlimit="10" stroke-linecap="round"/>
<path d="M276.476 703.213C286.764 509.564 441.231 313.74 741.762 320.263C969.84 325.191 1401.07 461.151 1505.4 72.1133" stroke="white" stroke-width="1.3235" stroke-miterlimit="10" stroke-linecap="round"/>
<path d="M255.175 694.661C275.317 496.083 439.927 297.651 751.035 314.175C983.896 326.495 1402.38 470.428 1518.01 93.5654" stroke="white" stroke-width="1.2794" stroke-miterlimit="10" stroke-linecap="round"/>
<path d="M234.019 686.254C263.869 482.603 438.623 281.417 760.309 308.087C997.951 327.8 1403.68 479.559 1530.47 115.018" stroke="white" stroke-width="1.2353" stroke-miterlimit="10" stroke-linecap="round"/>
<path d="M212.719 677.847C252.422 469.268 437.319 265.183 769.583 302.144C1012.01 329.104 1404.84 488.981 1543.08 136.47" stroke="white" stroke-width="1.1912" stroke-miterlimit="10" stroke-linecap="round"/>
<path d="M191.563 669.44C240.975 455.933 436.015 248.804 778.857 296.201C1026.21 330.409 1406.14 498.258 1555.69 158.067" stroke="white" stroke-width="1.1471" stroke-miterlimit="10" stroke-linecap="round"/>
<path d="M170.407 660.888C229.672 442.453 434.856 232.28 788.131 290.114C1040.26 331.423 1407.45 507.534 1568.15 179.374" stroke="white" stroke-width="1.1029" stroke-miterlimit="10" stroke-linecap="round"/>
<path d="M149.106 652.481C218.08 429.118 433.552 215.756 797.405 284.171C1054.32 332.583 1408.75 516.811 1580.75 200.971" stroke="white" stroke-width="1.0588" stroke-miterlimit="10" stroke-linecap="round"/>
<path d="M127.95 644.074C206.777 415.783 432.537 199.087 806.679 278.228C1068.52 333.598 1410.06 526.232 1593.22 222.568" stroke="white" stroke-width="1.0147" stroke-miterlimit="10" stroke-linecap="round"/>
<path d="M106.649 635.667C195.33 402.448 431.233 182.418 815.807 272.285C1082.57 334.612 1411.22 535.509 1605.68 244.021" stroke="white" stroke-width="0.9706" stroke-miterlimit="10" stroke-linecap="round"/>
<path d="M85.4931 627.116C183.883 388.968 430.219 165.459 825.081 266.197C1096.63 335.482 1412.52 544.786 1618.14 265.473" stroke="white" stroke-width="0.9265" stroke-miterlimit="10" stroke-linecap="round"/>
<path d="M64.1923 618.709C172.435 375.632 429.06 148.645 834.355 260.11C1110.83 336.207 1413.82 553.917 1630.75 286.78" stroke="white" stroke-width="0.8824" stroke-miterlimit="10" stroke-linecap="round"/>
<path d="M43.0364 610.302C161.133 362.152 428.045 131.686 843.629 254.167C1125.18 337.076 1415.13 563.339 1643.35 308.377" stroke="white" stroke-width="0.8382" stroke-miterlimit="10" stroke-linecap="round"/>
<path d="M21.7355 601.895C149.541 348.817 427.176 114.148 852.903 248.224C1139.52 337.656 1416.43 572.615 1655.81 329.974" stroke="white" stroke-width="0.7941" stroke-miterlimit="10" stroke-linecap="round"/>
<path d="M0.57959 593.488C138.238 335.482 426.162 97.769 862.177 242.281C1153.58 338.816 1417.74 582.037 1668.42 351.426" stroke="white" stroke-width="0.75" stroke-miterlimit="10" stroke-linecap="round"/>
</g>
</svg>
