<svg width="35" height="37" viewBox="0 0 35 37" fill="none" xmlns="http://www.w3.org/2000/svg">
<path d="M17.5027 36.5647C27.1525 36.5647 34.9752 28.5611 34.9752 18.6882C34.9752 8.81532 27.1525 0.811768 17.5027 0.811768C7.85297 0.811768 0.030304 8.81532 0.030304 18.6882C0.030304 28.5611 7.85297 36.5647 17.5027 36.5647Z" fill="white"/>
<path d="M22.8897 11.9524C22.1716 11.9524 21.6929 12.4422 21.6929 13.1768C21.6929 13.9115 22.2913 14.4012 22.8897 14.4012C23.6077 14.4012 24.0864 13.9115 24.0864 13.1768C24.0864 12.5646 23.6077 11.9524 22.8897 11.9524Z" fill="#24A556"/>
<path d="M17.6235 13.5471C14.871 13.5471 12.5972 15.8735 12.5972 18.6897C12.5972 21.5058 14.871 23.8322 17.6235 23.8322C20.376 23.8322 22.6498 21.5058 22.6498 18.6897C22.6498 15.8735 20.376 13.5471 17.6235 13.5471ZM17.6235 21.9956C15.8284 21.9956 14.3923 20.5263 14.3923 18.6897C14.3923 16.853 15.8284 15.3837 17.6235 15.3837C19.4186 15.3837 20.8547 16.853 20.8547 18.6897C20.8547 20.5263 19.4186 21.9956 17.6235 21.9956Z" fill="#24A556"/>
<path d="M21.5733 29.2188H13.4355C10.0846 29.2188 7.33209 26.4027 7.33209 22.9743V14.6483C7.33209 11.22 10.0846 8.40381 13.4355 8.40381H21.5733C24.9242 8.40381 27.6767 11.22 27.6767 14.6483V22.8519C27.7964 26.4027 25.0439 29.2188 21.5733 29.2188ZM13.4355 10.2404C11.042 10.2404 9.24688 12.1995 9.24688 14.5259V22.8519C9.24688 25.3007 11.1617 27.1373 13.4355 27.1373H21.5733C23.9668 27.1373 25.7619 25.1783 25.7619 22.8519V14.5259C25.7619 12.0771 23.8471 10.2404 21.5733 10.2404H13.4355Z" fill="#24A556"/>
</svg>
