<svg width="35" height="37" viewBox="0 0 35 37" fill="none" xmlns="http://www.w3.org/2000/svg">
<path d="M17.528 36.5647C27.1778 36.5647 35.0005 28.5611 35.0005 18.6882C35.0005 8.81532 27.1778 0.811768 17.528 0.811768C7.87827 0.811768 0.055603 8.81532 0.055603 18.6882C0.055603 28.5611 7.87827 36.5647 17.528 36.5647Z" fill="white"/>
<path d="M27.222 12.5667C26.6236 12.8115 25.9056 13.0564 25.3072 13.1789C25.6662 13.1789 26.0252 12.5667 26.2646 12.3218C26.5039 11.9545 26.7433 11.5871 26.8629 11.0974V10.9749H26.7433C26.0252 11.3423 25.3072 11.7096 24.4695 11.832C24.3498 11.832 24.3498 11.832 24.3498 11.832C24.2301 11.7096 24.2301 11.7096 24.1104 11.5871C23.7514 11.3423 23.3924 11.0974 23.0334 10.8525C22.5547 10.6076 21.9563 10.4852 21.3579 10.6076C20.7596 10.6076 20.2809 10.8525 19.8022 11.0974C19.3235 11.3423 18.8448 11.7096 18.4858 12.1993C18.1267 12.6891 17.8874 13.1789 17.7677 13.7911C17.648 14.4033 17.648 14.8931 17.7677 15.5053C17.7677 15.6277 17.7677 15.6277 17.648 15.6277C14.5365 15.1379 11.9037 14.036 9.74953 11.5871C9.62986 11.4647 9.62986 11.4647 9.51019 11.5871C8.5528 13.0564 9.03149 15.2604 10.2282 16.3623C10.3479 16.4848 10.5873 16.6072 10.7069 16.8521C10.5873 16.8521 9.86921 16.7297 9.15116 16.3623C9.03149 16.3623 9.03149 16.3623 9.03149 16.4848C9.03149 16.6072 9.03149 16.7297 9.03149 16.9746C9.15117 18.4439 10.2282 19.7907 11.5446 20.2805C11.6643 20.4029 11.9037 20.4029 12.0233 20.4029C11.6643 20.5254 11.425 20.5254 10.5873 20.4029C10.4676 20.4029 10.4676 20.4029 10.4676 20.5254C11.0659 22.362 12.502 22.8517 13.5791 23.2191C13.6988 23.2191 13.8185 23.2191 14.0578 23.2191C13.6988 23.7088 12.502 24.1986 11.9037 24.321C10.8266 24.6884 9.74953 24.8108 8.67247 24.6884C8.55279 24.6884 8.43312 24.6884 8.43312 24.6884V24.8108C8.67247 24.9332 8.91182 25.0557 9.15116 25.1781C9.86921 25.5455 10.5873 25.9128 11.3053 26.0352C15.2546 27.1372 19.5628 26.2801 22.5547 23.3415C24.8285 21.0151 25.6662 17.8316 25.6662 14.5257C25.6662 14.4033 25.7859 14.2808 25.9056 14.2808C26.5039 13.7911 26.9826 13.3013 27.4613 12.6891C27.222 12.8115 27.222 12.6891 27.222 12.5667Z" fill="#24A556"/>
</svg>
