<svg width="189" height="55" viewBox="0 0 189 55" fill="none" xmlns="http://www.w3.org/2000/svg">
<g clip-path="url(#clip0_1_2208)">
<path d="M96.9851 16.0893L96.9831 16.0879C95.364 14.9748 93.6469 13.965 91.9338 13.0581L91.6343 12.8995L91.3761 13.119C87.3094 16.5756 84.1476 21.1588 82.7178 26.4674C80.4782 34.4121 82.592 43.5069 90.5786 47.4483C94.5358 49.4012 98.9296 49.7228 102.575 48.3556C106.239 46.9819 109.109 43.9147 109.991 39.1921L96.9851 16.0893ZM96.9851 16.0893C100.616 18.6109 104.32 21.9036 106.892 25.7995M96.9851 16.0893L106.892 25.7995M145.318 16.4944L145.007 16.891C141.638 21.1781 139.596 26.5916 139.8 32.9151C139.8 32.9154 139.8 32.9157 139.8 32.9161L145.318 16.4944ZM145.318 16.4944L145.712 16.8095M145.318 16.4944L145.712 16.8095M145.712 16.8095C146.727 17.6212 147.74 18.5331 148.652 19.445L145.712 16.8095ZM106.892 25.7995C109.468 29.7011 110.921 34.2315 109.991 39.1918L106.892 25.7995ZM197.516 34.0929L197.506 34.0911C196.729 33.9431 196.009 34.4203 195.708 35.1118C195.562 35.449 195.53 35.8103 195.631 36.1391C195.729 36.4583 195.965 36.7894 196.433 37.0575C200.302 38.941 204.373 40.4307 208.472 41.9303L208.479 41.9333C208.811 42.061 209.147 42.1959 209.487 42.3322C210.513 42.7441 211.573 43.1696 212.663 43.4536C214.1 43.8277 215.505 43.9302 216.816 43.4347C218.797 42.6218 219.735 40.8147 220.426 38.7418L220.425 38.7418L220.43 38.7299C221.262 36.4298 221.804 34.0525 222.351 31.6516L222.362 31.6013C222.911 29.1937 223.468 26.7621 224.331 24.4266C224.724 23.3548 224.525 22.5186 224.053 21.9091C223.564 21.2772 222.743 20.8405 221.833 20.6936C220.924 20.5468 219.992 20.6998 219.298 21.1629C218.624 21.612 218.123 22.3846 218.1 23.605C218.099 26.2182 217.473 28.7686 216.867 31.2379C216.738 31.7642 216.61 32.2869 216.489 32.8057L216.34 33.548L216.19 34.298L215.906 35.7187L215.253 34.4252C209.641 23.2987 200.454 12.779 189.479 6.57269C178.516 0.373474 165.789 -1.51506 153.014 4.55162L153.011 4.55304C150.065 5.92806 147.41 7.79564 145.046 10.0609L144.692 10.3996L144.346 10.0535C144.189 9.89618 143.937 9.72551 143.623 9.516L143.618 9.51307C128.347 -0.898819 105.984 -2.94144 91.096 8.00282L90.8585 8.17744L90.5907 8.05408C81.7525 3.98257 71.1747 1.47541 60.8654 1.53744C50.5553 1.59948 40.5498 4.22987 32.8113 10.3911L32.6202 10.5433L32.3828 10.486C15.9591 6.52853 -2.26355 11.9715 -14.2451 24.052L-14.2466 24.0535C-14.4537 24.2606 -14.5042 24.4553 -14.4948 24.612C-14.4846 24.7811 -14.4006 24.9591 -14.2516 25.104C-13.9525 25.3947 -13.5063 25.4668 -13.1405 25.1337C-2.12612 14.7275 14.0341 9.87842 28.8934 12.7088L29.7089 12.8641L29.1903 13.5123C28.9812 13.7737 28.7481 14.0327 28.5266 14.2788L28.5215 14.2844C28.2946 14.5366 28.0796 14.7757 27.8903 15.0123L27.8905 15.0124L27.8818 15.0227C21.9921 21.9921 20.0993 31.9451 22.3693 40.1415C23.5024 44.233 25.6677 47.8691 28.8706 50.4812C32.0694 53.0901 36.3304 54.7 41.6999 54.7C50.7349 54.7 57.7259 48.2031 58.6021 39.1525C59.5772 28.9142 53.0475 20.2729 44.447 15.2313L44.4426 15.2287C42.4642 14.0416 40.2932 12.9568 38.129 12.1698L37.1653 11.8194L38.0349 11.276C40.4789 9.74844 43.1182 8.63347 45.8418 7.72559L45.8462 7.72417C58.9809 3.48066 74.0069 5.00143 86.7986 10.5411L87.4507 10.8235L86.9647 11.3419C85.4723 12.9337 84.0923 14.5121 82.8134 16.3811C77.4808 24.2822 75.3625 35.3655 80.4284 43.8423C84.6222 50.7655 93.6145 54.7685 101.305 53.309C110.671 51.4738 115.278 42.3871 114.005 33.272C112.539 23.2059 104.312 15.8111 95.7486 10.8322L95.0063 10.4007L95.7479 9.96806L95.7639 9.95874C96.9512 9.26616 98.1737 8.55302 99.4031 8.04028C113.499 1.8561 128.98 5.2177 141.082 13.4871L141.508 13.778L141.204 14.1945C137.754 18.9257 135.492 24.6363 135.099 30.6327C134.805 35.338 135.984 40.8363 138.592 45.2193C141.196 49.5954 145.189 52.8119 150.526 53.1006C155.17 53.3398 158.84 51.0022 161.186 47.5324C163.538 44.0523 164.535 39.4593 163.808 35.2879C162.239 26.8616 155.948 19.3578 148.981 13.585L148.511 13.1953L148.985 12.8112C155.903 7.2163 165.549 4.78477 174.781 6.30661L174.783 6.30683C191.712 9.14525 203.516 22.5138 210.748 37.0776L211.196 37.9796L210.206 37.7911C208.121 37.3939 205.994 36.6597 203.919 35.9435L203.749 35.8851C201.605 35.1451 199.519 34.4348 197.516 34.0929ZM25.7215 26.3546L25.7226 26.3508C27.2533 21.4526 30.1109 17.3738 33.9778 14.1175L34.1922 13.937L34.458 14.0256C36.2795 14.6328 37.9979 15.3405 39.7128 16.1475L39.7173 16.1497C44.1246 18.2773 48.4958 21.5505 51.4794 25.656C54.4683 29.7689 56.0752 34.7368 54.8885 40.206L54.888 40.2084C53.7483 45.3369 50.3682 48.6447 46.2111 50.0607C42.0681 51.472 37.171 51.001 32.9553 48.636L32.9537 48.6351C25.0767 44.1784 23.2813 34.3868 25.7215 26.3546Z" fill="white" stroke="#3F3F3F"/>
</g>
<defs>
<clipPath id="clip0_1_2208">
<rect width="189" height="55" fill="none" transform="matrix(1 0 0 -1 0 55)"/>
</clipPath>
</defs>
</svg>
